<svg width="51" height="54" viewBox="0 0 51 54" fill="none" xmlns="http://www.w3.org/2000/svg">
<g id="checkbox" clip-path="url(#clip0)">
<path id="Vector" d="M21.5156 23.625H0.796875C0.585531 23.625 0.382842 23.5361 0.233399 23.3779C0.0839562 23.2196 0 23.005 0 22.7812V0.84375C0 0.619974 0.0839562 0.405362 0.233399 0.247129C0.382842 0.0888949 0.585531 0 0.796875 0L21.5156 0C21.727 0 21.9297 0.0888949 22.0791 0.247129C22.2285 0.405362 22.3125 0.619974 22.3125 0.84375V22.7812C22.3125 23.005 22.2285 23.2196 22.0791 23.3779C21.9297 23.5361 21.727 23.625 21.5156 23.625ZM1.59375 21.9375H20.7188V1.6875H1.59375V21.9375Z" fill="#0D1A1D"/>
<path id="Vector_2" d="M10.1602 17.2969C9.94972 17.2971 9.74776 17.2091 9.59835 17.0522L3.42257 10.5047C3.29202 10.3433 3.2238 10.1357 3.23155 9.92333C3.2393 9.71097 3.32244 9.50954 3.46436 9.35927C3.60628 9.209 3.79652 9.12097 3.99708 9.11277C4.19763 9.10457 4.39372 9.1768 4.54617 9.31503L10.1602 15.2592L17.7663 7.20565C17.8389 7.12109 17.927 7.05304 18.0253 7.00561C18.1235 6.95819 18.2298 6.93239 18.3377 6.92979C18.4456 6.92718 18.5529 6.94781 18.6531 6.99044C18.7532 7.03306 18.8442 7.09679 18.9204 7.17775C18.9965 7.25871 19.0564 7.35522 19.0963 7.46143C19.1362 7.56763 19.1553 7.68131 19.1525 7.79556C19.1496 7.90982 19.1249 8.02227 19.0798 8.1261C19.0346 8.22993 18.97 8.32296 18.8899 8.39956L10.7259 17.048C10.6518 17.127 10.5636 17.1896 10.4665 17.2323C10.3694 17.275 10.2653 17.297 10.1602 17.2969Z" fill="#0D1A1D"/>
<path id="Vector_3" d="M50.2031 10.1254H27.0938C26.8824 10.1254 26.6797 10.0365 26.5303 9.87822C26.3808 9.71995 26.2969 9.50529 26.2969 9.28146C26.2969 9.05763 26.3808 8.84296 26.5303 8.68469C26.6797 8.52642 26.8824 8.4375 27.0938 8.4375H50.2031C50.4145 8.4375 50.6172 8.52642 50.7666 8.68469C50.916 8.84296 51 9.05763 51 9.28146C51 9.50529 50.916 9.71995 50.7666 9.87822C50.6172 10.0365 50.4145 10.1254 50.2031 10.1254Z" fill="#0D1A1D"/>
<path id="Vector_4" d="M21.5156 54H0.796875C0.585531 54 0.382842 53.9111 0.233399 53.7529C0.0839562 53.5946 0 53.38 0 53.1563V31.2188C0 30.995 0.0839562 30.7804 0.233399 30.6221C0.382842 30.4639 0.585531 30.375 0.796875 30.375H21.5156C21.727 30.375 21.9297 30.4639 22.0791 30.6221C22.2285 30.7804 22.3125 30.995 22.3125 31.2188V53.1563C22.3125 53.38 22.2285 53.5946 22.0791 53.7529C21.9297 53.9111 21.727 54 21.5156 54ZM1.59375 52.3125H20.7188V32.0625H1.59375V52.3125Z" fill="#0D1A1D"/>
<path id="Vector_5" d="M42.6328 15.1879H27.0938C26.8824 15.1879 26.6797 15.099 26.5303 14.9407C26.3808 14.7825 26.2969 14.5678 26.2969 14.344C26.2969 14.1201 26.3808 13.9055 26.5303 13.7472C26.6797 13.5889 26.8824 13.5 27.0938 13.5H42.6328C42.8442 13.5 43.0468 13.5889 43.1963 13.7472C43.3457 13.9055 43.4297 14.1201 43.4297 14.344C43.4297 14.5678 43.3457 14.7825 43.1963 14.9407C43.0468 15.099 42.8442 15.1879 42.6328 15.1879Z" fill="#0D1A1D"/>
<path id="Vector_6" d="M50.2031 40.5004H27.0938C26.8824 40.5004 26.6797 40.4115 26.5303 40.2532C26.3808 40.095 26.2969 39.8803 26.2969 39.6565C26.2969 39.4326 26.3808 39.218 26.5303 39.0597C26.6797 38.9014 26.8824 38.8125 27.0938 38.8125H50.2031C50.4145 38.8125 50.6172 38.9014 50.7666 39.0597C50.916 39.218 51 39.4326 51 39.6565C51 39.8803 50.916 40.095 50.7666 40.2532C50.6172 40.4115 50.4145 40.5004 50.2031 40.5004Z" fill="#0D1A1D"/>
<path id="Vector_7" d="M46.2187 45.5629H27.0937C26.8824 45.5629 26.6797 45.474 26.5303 45.3157C26.3808 45.1575 26.2969 44.9428 26.2969 44.719C26.2969 44.4951 26.3808 44.2805 26.5303 44.1222C26.6797 43.9639 26.8824 43.875 27.0937 43.875H46.2187C46.4301 43.875 46.6328 43.9639 46.7822 44.1222C46.9317 44.2805 47.0156 44.4951 47.0156 44.719C47.0156 44.9428 46.9317 45.1575 46.7822 45.3157C46.6328 45.474 46.4301 45.5629 46.2187 45.5629Z" fill="#0D1A1D"/>
</g>
<defs>
<clipPath id="clip0">
<rect width="51" height="54" fill="white"/>
</clipPath>
</defs>
</svg>
