<svg width="40" height="41" viewBox="0 0 40 41" fill="none" xmlns="http://www.w3.org/2000/svg">
<g id="Group">
<path id="Vector" d="M39.5343 39.959C39.5343 39.923 39.5343 39.8689 39.5161 39.8329V1.14917C39.5161 0.752783 39.1895 0.428467 38.7903 0.428467C38.754 0.428467 38.7359 0.428467 38.6996 0.428467L27.2681 1.76177H8.32459C7.88911 1.76177 7.54435 2.14014 7.59879 2.57256C7.97983 5.41934 10.9556 14.7344 13.3871 14.7344C16.5806 14.7344 18.9032 14.7344 22.0968 14.7344C23.2944 14.7344 24.6552 12.4642 25.7621 9.83364C33.7823 16.5182 32.8569 29.5809 31.7319 36.3555H7.05443C7.01814 36.3555 6.98185 36.3555 6.94556 36.3555C6.90927 36.3555 6.89113 36.3555 6.85483 36.3555C6.45564 36.3555 6.12903 36.6798 6.12903 37.0762V39.959C6.12903 40.3554 6.45564 40.6797 6.85483 40.6797C6.89113 40.6797 6.90927 40.6797 6.94556 40.6797C6.98185 40.6797 7.01814 40.6797 7.05443 40.6797H31.7319H38.6089H38.7903C39.0806 40.6797 39.3528 40.4996 39.4617 40.2473C39.498 40.1572 39.5343 40.0671 39.5343 39.959ZM22.006 13.293H13.4778C13.1512 13.0948 12.1532 11.9958 10.8831 8.71655C10.0847 6.68057 9.46774 4.57251 9.17742 3.20317H26.379C26.0887 4.55449 25.4536 6.66255 24.6371 8.71655C23.3488 11.9958 22.3327 13.1128 22.006 13.293ZM31.1694 39.2383H7.58064V37.7969H31.4597C31.3508 38.3555 31.2601 38.8239 31.1694 39.2383ZM32.6391 39.2383C33.2198 36.5897 34.127 31.4007 33.873 25.8333C33.7097 22.2297 33.0746 19.0046 31.9859 16.2479C30.7157 13.0228 28.8286 10.3922 26.3427 8.42827L28.1391 3.09507L38.0645 1.94194V39.2383H32.6391Z" fill="#0D1A1D"/>
<path id="Vector_2" d="M8.36088 17.5631C8.39717 17.5812 8.43346 17.5992 8.48789 17.5992C7.3266 19.1127 6.12902 21.7612 6.12902 26.2656C6.12902 32.0853 6.80039 33.9952 7.23588 34.6078C7.36289 34.806 7.59878 34.9141 7.83467 34.9141H27.5222C27.8306 34.9141 28.121 34.7159 28.2117 34.4276C28.4839 33.6348 28.6472 31.5808 28.6472 26.2656C28.6472 21.9774 27.4859 19.3649 26.3064 17.8154L27.8125 16.428C28.0484 16.1938 27.8851 15.8154 27.5585 15.8154H27.0141H26.0343H23.7843H11.3911C11.3911 15.8154 9.35886 15.419 7.58063 14.7344C6.78225 14.4281 6.4012 14.1038 6.23789 13.8515C6.05644 13.5632 5.67539 13.4371 5.34878 13.5813C3.77015 14.2299 0.322571 16.1758 0.322571 20.5C0.322571 24.59 1.86491 28.3016 2.69959 29.9953C2.93547 30.4637 3.5887 30.5358 3.91531 30.1214L4.49596 29.5088C4.69555 29.2746 4.7137 28.9322 4.55039 28.68C3.91531 27.689 2.49999 24.9864 2.49999 20.5C2.49999 15.2389 7.45362 17.1848 8.36088 17.5631ZM26.9234 33.4727H8.27015C8.01612 32.806 7.58063 30.9682 7.58063 26.2656C7.58063 21.491 8.99596 19.0946 10.0302 17.9775H24.4919C25.5988 19.0586 27.1593 21.4549 27.1593 26.2656C27.1774 29.9592 27.0867 32.3736 26.9234 33.4727Z" fill="#0D1A1D"/>
<path id="Vector_3" d="M24.1109 24.626L21.8246 24.9143C21.6794 24.9323 21.5161 24.9323 21.3709 24.9143L17.3971 24.4278L13.4596 23.9414C13.3145 23.9234 13.1512 23.9234 13.006 23.9414L10.1935 24.2837C9.52215 24.3738 9.03223 24.8062 9.03223 25.3107C9.03223 25.3107 9.03223 27.0764 9.03223 27.1125C9.06852 29.6529 9.23182 31.1664 9.39513 32.0313H25.5988C25.6532 31.0763 25.7076 29.5268 25.7076 27.0404V25.653C25.7258 25.0224 24.9455 24.5179 24.1109 24.626Z" fill="#0D1A1D"/>
<path id="Vector_4" d="M36.9758 26.2656C36.9758 26.1575 36.9032 26.0855 36.7943 26.0855H35.7056C35.7056 25.9774 35.7056 25.8692 35.6875 25.7431C35.6512 25.0044 35.5968 24.2657 35.5242 23.563H36.6129C36.7218 23.563 36.7943 23.4909 36.7943 23.3828C36.7943 23.2747 36.7218 23.2026 36.6129 23.2026H35.4879C35.3972 22.3378 35.2701 21.491 35.125 20.6802H36.2681C36.377 20.6802 36.4496 20.6081 36.4496 20.5C36.4496 20.3919 36.377 20.3198 36.2681 20.3198H35.0705C34.9072 19.455 34.6895 18.6082 34.4536 17.7974H35.5423C35.6512 17.7974 35.7238 17.7253 35.7238 17.6172C35.7238 17.5091 35.6512 17.437 35.5423 17.437H34.3447C34.0726 16.5542 33.7641 15.7253 33.4193 14.9146H34.4536C34.5625 14.9146 34.6351 14.8425 34.6351 14.7344C34.6351 14.6263 34.5625 14.5542 34.4536 14.5542H33.2742C32.875 13.6713 32.4395 12.8245 31.9496 12.0317H33.0201C33.129 12.0317 33.2016 11.9597 33.2016 11.8516C33.2016 11.7435 33.129 11.6714 33.0201 11.6714H31.7318C31.1512 10.7705 30.498 9.92369 29.7903 9.14893H30.8427C30.9516 9.14893 31.0242 9.07686 31.0242 8.96876C31.0242 8.86065 30.9516 8.78858 30.8427 8.78858H29.4455C29.0826 8.41021 28.7016 8.04986 28.3024 7.68951C28.1572 7.56339 27.9214 7.56339 27.7943 7.72555C27.6673 7.86969 27.6673 8.10391 27.8306 8.23004C32.2218 12.1038 34.6351 17.9956 34.998 25.7792C35.2157 30.4457 34.6351 34.86 34.0907 37.7248C34.0544 37.923 34.1814 38.1032 34.381 38.1392C34.3992 38.1392 34.4173 38.1392 34.4536 38.1392C34.6169 38.1392 34.7802 38.0131 34.8165 37.8509C34.9617 37.0401 35.125 36.1032 35.252 35.0762H36.2863C36.3951 35.0762 36.4677 35.0042 36.4677 34.8961C36.4677 34.7879 36.3951 34.7159 36.2863 34.7159H35.3064C35.4153 33.9231 35.506 33.0763 35.5786 32.1934H36.6492C36.758 32.1934 36.8306 32.1213 36.8306 32.0132C36.8306 31.9051 36.758 31.8331 36.6492 31.8331H35.6149C35.6875 31.0223 35.7238 30.1754 35.7601 29.3106H36.8488C36.9576 29.3106 37.0302 29.2385 37.0302 29.1304C37.0302 29.0223 36.9576 28.9503 36.8488 28.9503H35.7782C35.7964 28.1214 35.7964 27.2746 35.7782 26.4278H36.8669C36.9032 26.4458 36.9758 26.3737 36.9758 26.2656Z" fill="#0D1A1D"/>
</g>
</svg>
