<svg xmlns="http://www.w3.org/2000/svg" data-name="Layer 3" width="31.142857142857146" height="17.142857142857146" style=""><rect id="backgroundrect" width="100%" height="100%" x="0" y="0" fill="none" stroke="none" class="selected" style=""/><defs><style>.cls-1{fill:none;stroke:#000000;stroke-linecap:round;stroke-linejoin:round;}</style></defs><title/><g class="currentLayer" style=""><title>Layer 1</title><path class="cls-1" d="M22.51142859697342,0.5714285969734192 V14.17142859697342 H12.851428596973419 a2.42,2.42 0 0 0 -4.83,0 H5.571428596973419 V0.5714285969734192 z" id="svg_1"/><path class="cls-1" d="M30.57142859697342,9.37142859697342 v4.8 H28.96142859697342 a2.42,2.42 0 0 0 -4.83,0 H22.51142859697342 V4.571428596973419 h3.37 z" id="svg_2"/><path class="cls-1" d="M30.57142859697342,9.37142859697342 v4.8 H28.96142859697342 a2.42,2.42 0 0 0 -4.83,0 H22.51142859697342 V9.37142859697342 z" id="svg_3"/><ellipse class="cls-1" cx="10.431428253650665" cy="14.171428978443146" rx="2.4200000762939453" ry="2.4000000953674316" id="svg_4"/><ellipse class="cls-1" cx="26.54142791032791" cy="14.171428978443146" rx="2.4200000762939453" ry="2.4000000953674316" id="svg_5"/><line class="cls-1" x1="0.489795945584774" x2="3.099795840680599" y1="2.1714289784431458" y2="2.1714289784431458" id="svg_6"/><line class="cls-1" x1="0.489795945584774" x2="3.099795840680599" y1="5.3714287877082825" y2="5.3714287877082825" id="svg_7"/><line class="cls-1" x1="0.489795945584774" x2="3.099795840680599" y1="8.57142859697342" y2="8.57142859697342" id="svg_8"/></g></svg>