<svg width="62" height="62" viewBox="0 0 62 62" fill="none" xmlns="http://www.w3.org/2000/svg">
<g id="LOGO-cup">
<rect width="62" height="62" rx="31" fill="white"/>
<g id="Group">
<path id="Vector" d="M50.5376 27.7106H48.7196C48.995 26.0578 49.1603 24.6254 49.2705 23.5236C49.4082 22.2289 48.389 21.0995 47.0668 21.0995H14.3423C13.0476 21.0995 12.0284 22.2289 12.1386 23.5236C12.8548 30.7681 16.1879 51.951 30.7045 51.951C38.6378 51.951 43.2104 45.6429 45.8823 38.7289H48.3339C48.3339 38.7289 51.0885 38.7289 51.6394 37.0762L53.8431 32.1179C53.8431 29.804 52.6862 27.7106 50.5376 27.7106ZM38.1695 46.8825C35.9934 48.8107 33.5418 49.7473 30.7045 49.7473C27.8673 49.7473 25.4157 48.8107 23.2396 46.8825C21.3389 45.1747 19.6586 42.7231 18.2538 39.5828C15.6645 33.688 14.6728 26.8566 14.3423 23.3308H47.0668C46.7087 26.8842 45.7446 33.688 43.1553 39.6104C41.7505 42.7231 40.0702 45.1747 38.1695 46.8825ZM49.6286 36.1947C49.6286 36.2222 49.601 36.2498 49.601 36.2498C49.3807 36.3875 48.7747 36.5252 48.3339 36.5252H47.3698L49.1879 29.9142H50.5376C51.2263 29.9142 51.5293 30.8783 51.6119 31.7047L49.6286 36.1947Z" fill="#0F1C20"/>
<path id="Vector_2" d="M27.399 16.1413C27.399 16.1963 27.399 16.279 27.4266 16.3341C27.4541 16.4718 27.4541 16.6095 27.4817 16.7473C27.5368 16.9952 27.5919 17.2155 27.6469 17.4359C27.7847 17.8491 27.9224 18.1797 28.0326 18.4C28.0877 18.5102 28.1428 18.5928 28.1703 18.6479C28.1979 18.703 28.2254 18.7306 28.2254 18.7306C28.2805 18.8132 28.3907 18.8958 28.5009 18.8683C28.6386 18.8408 28.7488 18.703 28.7212 18.5378V18.5102C28.7212 18.5102 28.6937 18.3725 28.6661 18.1521C28.6386 17.9317 28.5835 17.6012 28.5284 17.2155C28.5009 17.0227 28.4733 16.8299 28.4733 16.6095C28.4733 16.4994 28.4733 16.3892 28.4733 16.3065C28.4733 16.2514 28.4733 16.1964 28.4733 16.1137V16.0586V16.0311V15.976C28.5009 15.8107 28.556 15.673 28.6661 15.5077C28.7763 15.3424 28.9416 15.1772 29.1344 14.9017C29.2171 14.764 29.3272 14.6262 29.4099 14.4334C29.4374 14.3508 29.465 14.2681 29.4925 14.158C29.5201 14.0753 29.5476 13.9651 29.5476 13.8825C29.5476 13.8274 29.5752 13.7723 29.5752 13.7448V13.6346V13.5244V13.4969V13.4693V13.4142C29.5752 13.2765 29.5476 13.1388 29.5201 13.001C29.4374 12.4501 29.3272 11.9818 29.2171 11.5962C29.1069 11.183 28.9692 10.88 28.8865 10.6321C28.8039 10.4117 28.7488 10.274 28.7488 10.274C28.6937 10.1638 28.5835 10.1087 28.4733 10.1087C28.308 10.1362 28.2254 10.274 28.2254 10.4117C28.2254 10.4117 28.253 10.5494 28.2805 10.7698C28.308 10.9902 28.3356 11.3483 28.3907 11.7339C28.4458 12.1196 28.4733 12.5878 28.5009 13.0561C28.5009 13.1663 28.5009 13.304 28.5009 13.4142C28.5009 13.4418 28.4733 13.6897 28.4733 13.7172C28.4458 13.7723 28.4182 13.8549 28.3907 13.9376C28.3631 14.0202 28.308 14.1029 28.253 14.1855C28.1152 14.3508 27.9224 14.5711 27.7296 14.8466C27.5368 15.1496 27.4266 15.5352 27.4266 15.8658V16.0035C27.4266 16.0311 27.4266 16.0311 27.4266 16.0862L27.399 16.1413Z" fill="#0F1C20"/>
<path id="Vector_3" d="M29.6027 16.0862V16.1413C29.6027 16.1963 29.6027 16.279 29.6303 16.3341C29.6578 16.4718 29.6578 16.6095 29.6853 16.7473C29.7404 16.9952 29.7955 17.2155 29.8506 17.4359C29.9883 17.8491 30.1261 18.1797 30.2363 18.4C30.2914 18.5102 30.3464 18.5928 30.374 18.6479C30.4015 18.703 30.4291 18.7306 30.4291 18.7306C30.4842 18.8132 30.5944 18.8958 30.7045 18.8683C30.8423 18.8408 30.9525 18.703 30.9249 18.5378V18.5102C30.9249 18.5102 30.8974 18.3725 30.8698 18.1521C30.8423 17.9317 30.7872 17.6012 30.7321 17.2155C30.7045 17.0227 30.677 16.8299 30.677 16.6095C30.677 16.4994 30.677 16.3892 30.677 16.3065C30.677 16.2514 30.677 16.1964 30.677 16.1137V16.0586V16.0311V15.976C30.7045 15.8107 30.7596 15.673 30.8698 15.5077C30.98 15.3424 31.1453 15.1772 31.3381 14.9017C31.4207 14.764 31.5309 14.6262 31.6136 14.4334C31.6411 14.3508 31.6687 14.2681 31.6962 14.158C31.7237 14.0753 31.7513 13.9651 31.7513 13.8825C31.7513 13.8274 31.7788 13.7723 31.7788 13.7448V13.6346V13.5244V13.4969V13.4693V13.4142C31.7788 13.2765 31.7513 13.1388 31.7237 13.001C31.6411 12.4501 31.5309 11.9818 31.4207 11.5962C31.3106 11.183 31.1728 10.88 31.0902 10.6321C31.0075 10.4117 30.9525 10.274 30.9525 10.274C30.8974 10.1638 30.7872 10.1087 30.677 10.1087C30.5117 10.1362 30.4291 10.274 30.4291 10.4117C30.4291 10.4117 30.4566 10.5494 30.4842 10.7698C30.5117 10.9902 30.5393 11.3483 30.5944 11.7339C30.6495 12.1196 30.677 12.5878 30.7045 13.0561C30.7045 13.1663 30.7045 13.304 30.7045 13.4142C30.7045 13.4418 30.677 13.6897 30.677 13.7172C30.6495 13.7723 30.6219 13.8549 30.5944 13.9376C30.5668 14.0202 30.5117 14.1029 30.4566 14.1855C30.3189 14.3508 30.1261 14.5711 29.9333 14.8466C29.7404 15.1496 29.6303 15.5352 29.6303 15.8658V16.0035C29.6027 16.0586 29.6027 16.0586 29.6027 16.0862Z" fill="#0F1C20"/>
<path id="Vector_4" d="M31.8064 16.0862V16.1413C31.8064 16.1963 31.8064 16.279 31.8339 16.3341C31.8615 16.4718 31.8615 16.6095 31.889 16.7473C31.9441 16.9952 31.9992 17.2155 32.0543 17.4359C32.192 17.8491 32.3298 18.1797 32.4399 18.4C32.495 18.5102 32.5501 18.5928 32.5777 18.6479C32.6052 18.703 32.6328 18.7306 32.6328 18.7306C32.6879 18.8132 32.798 18.8958 32.9082 18.8683C33.0459 18.8408 33.1561 18.703 33.1286 18.5378V18.5102C33.1286 18.5102 33.101 18.3725 33.0735 18.1521C33.046 17.9317 32.9909 17.6012 32.9358 17.2155C32.9082 17.0227 32.8807 16.8299 32.8807 16.6095C32.8807 16.4994 32.8807 16.3892 32.8807 16.3065C32.8807 16.2514 32.8807 16.1964 32.8807 16.1137V16.0586V16.0311V15.976C32.9082 15.8107 32.9633 15.673 33.0735 15.5077C33.1837 15.3424 33.349 15.1772 33.5418 14.9017C33.6244 14.764 33.7346 14.6262 33.8172 14.4334C33.8448 14.3508 33.8723 14.2681 33.8999 14.158C33.9274 14.0753 33.955 13.9651 33.955 13.8825C33.955 13.8274 33.9825 13.7723 33.9825 13.7448V13.6346V13.5244V13.4969V13.4693V13.4142C33.9825 13.2765 33.955 13.1388 33.9274 13.001C33.8448 12.4501 33.7346 11.9818 33.6244 11.5962C33.5142 11.183 33.3765 10.88 33.2939 10.6321C33.2112 10.4117 33.1561 10.274 33.1561 10.274C33.101 10.1638 32.9909 10.1087 32.8807 10.1087C32.7154 10.1362 32.6328 10.274 32.6328 10.4117C32.6328 10.4117 32.6603 10.5494 32.6879 10.7698C32.7154 10.9902 32.7429 11.3483 32.798 11.7339C32.8531 12.1196 32.8807 12.5878 32.9082 13.0561C32.9082 13.1663 32.9082 13.304 32.9082 13.4142C32.9082 13.4418 32.8807 13.6897 32.8807 13.7172C32.8531 13.7723 32.8256 13.8549 32.798 13.9376C32.7705 14.0202 32.7154 14.1029 32.6603 14.1855C32.5226 14.3508 32.3298 14.5711 32.1369 14.8466C31.9441 15.1496 31.8339 15.5352 31.8339 15.8658V16.0035C31.8064 16.0586 31.8064 16.0586 31.8064 16.0862Z" fill="#0F1C20"/>
<path id="Vector_5" d="M42.9349 27.7105H18.4742C17.7855 27.7105 17.2621 28.3441 17.3999 29.0052C17.9232 31.7047 18.6945 34.7347 19.8239 37.5995C22.4959 44.2932 26.0493 47.5436 30.7045 47.5436C35.3598 47.5436 38.9132 44.2932 41.5852 37.5995C42.7421 34.7347 43.5134 31.7047 44.0092 29.0052C44.147 28.3441 43.6236 27.7105 42.9349 27.7105Z" fill="#0F1C20"/>
</g>
</g>
</svg>
