<svg width="67" height="67" viewBox="0 0 67 67" fill="none" xmlns="http://www.w3.org/2000/svg">
<g id="LOGO-cup">
<rect width="67" height="67" rx="33.5" fill="white"/>
<g id="Group">
<path id="Vector" d="M54.5045 31.1939H52.5399C52.8375 29.5026 53.0162 28.0368 53.1352 26.9092C53.2841 25.5843 52.1827 24.4286 50.7538 24.4286H15.3902C13.9911 24.4286 12.8898 25.5843 13.0088 26.9092C13.7828 34.3228 17.3846 56 33.072 56C41.645 56 46.5864 49.5448 49.4738 42.4694H52.1231C52.1231 42.4694 55.0999 42.4694 55.6952 40.7781L58.0766 35.7041C58.0766 33.3362 56.8264 31.1939 54.5045 31.1939ZM41.139 50.8133C38.7874 52.7865 36.1381 53.7449 33.072 53.7449C30.006 53.7449 27.3567 52.7865 25.0051 50.8133C22.9511 49.0656 21.1353 46.5568 19.6172 43.3433C16.819 37.3109 15.7474 30.32 15.3902 26.7119H50.7538C50.3669 30.3482 49.325 37.3109 46.5269 43.3714C45.0087 46.5568 43.1929 49.0656 41.139 50.8133ZM53.5222 39.876C53.5222 39.9042 53.4924 39.9324 53.4924 39.9324C53.2543 40.0734 52.5994 40.2143 52.1231 40.2143H51.0813L53.0459 33.449H54.5045C55.2487 33.449 55.5761 34.4356 55.6654 35.2813L53.5222 39.876Z" fill="#0D1A1D"/>
<path id="Vector_2" d="M26.9074 18.4518C26.9074 18.529 26.9074 18.6448 26.9622 18.722C27.0169 18.9149 27.0169 19.1079 27.0716 19.3008C27.181 19.6482 27.2905 19.9569 27.3999 20.2657C27.6735 20.8446 27.947 21.3077 28.1659 21.6164C28.2753 21.7708 28.3848 21.8866 28.4395 21.9637C28.4942 22.0409 28.5489 22.0795 28.5489 22.0795C28.6584 22.1953 28.8772 22.3111 29.0961 22.2725C29.3697 22.2339 29.5885 22.0409 29.5338 21.8094V21.7708C29.5338 21.7708 29.4791 21.5778 29.4244 21.2691C29.3697 20.9603 29.2602 20.4972 29.1508 19.9569C29.0961 19.6868 29.0414 19.4166 29.0414 19.1079C29.0414 18.9535 29.0414 18.7991 29.0414 18.6834C29.0414 18.6062 29.0414 18.529 29.0414 18.4132V18.336V18.2974V18.2202C29.0961 17.9887 29.2055 17.7957 29.4244 17.5642C29.6432 17.3326 29.9715 17.1011 30.3546 16.7151C30.5187 16.5222 30.7376 16.3292 30.9017 16.0591C30.9564 15.9433 31.0112 15.8275 31.0659 15.6731C31.1206 15.5574 31.1753 15.403 31.1753 15.2872C31.1753 15.21 31.23 15.1328 31.23 15.0942V14.9399V14.7855V14.7469V14.7083V14.6311C31.23 14.4382 31.1753 14.2452 31.1206 14.0522C30.9564 13.2804 30.7376 12.6243 30.5187 12.084C30.2998 11.5051 30.0263 11.0806 29.8621 10.7333C29.698 10.4245 29.5885 10.2316 29.5885 10.2316C29.4791 10.0772 29.2602 10 29.0414 10C28.7131 10.0386 28.5489 10.2316 28.5489 10.4245C28.5489 10.4245 28.6036 10.6175 28.6584 10.9262C28.7131 11.235 28.7678 11.7367 28.8772 12.277C28.9867 12.8173 29.0414 13.4733 29.0961 14.1294C29.0961 14.2838 29.0961 14.4768 29.0961 14.6311C29.0961 14.6697 29.0414 15.0171 29.0414 15.0556C28.9867 15.1328 28.9319 15.2486 28.8772 15.3644C28.8225 15.4802 28.7131 15.5959 28.6036 15.7117C28.3301 15.9433 27.947 16.252 27.564 16.6379C27.181 17.0625 26.9622 17.6028 26.9622 18.0659V18.2588C26.9622 18.2974 26.9622 18.2974 26.9622 18.3746L26.9074 18.4518Z" fill="#0D1A1D"/>
<path id="Vector_3" d="M31.23 18.3746V18.4518C31.23 18.529 31.23 18.6448 31.2847 18.722C31.3395 18.9149 31.3395 19.1079 31.3942 19.3008C31.5036 19.6482 31.613 19.9569 31.7225 20.2657C31.996 20.8446 32.2696 21.3077 32.4885 21.6164C32.5979 21.7708 32.7074 21.8866 32.7621 21.9637C32.8168 22.0409 32.8715 22.0795 32.8715 22.0795C32.9809 22.1953 33.1998 22.3111 33.4187 22.2725C33.6923 22.2339 33.9111 22.0409 33.8564 21.8094V21.7708C33.8564 21.7708 33.8017 21.5778 33.747 21.2691C33.6923 20.9603 33.5828 20.4972 33.4734 19.9569C33.4187 19.6868 33.364 19.4166 33.364 19.1079C33.364 18.9535 33.364 18.7991 33.364 18.6834C33.364 18.6062 33.364 18.529 33.364 18.4132V18.336V18.2974V18.2202C33.4187 17.9887 33.5281 17.7957 33.747 17.5642C33.9658 17.3326 34.2941 17.1011 34.6771 16.7151C34.8413 16.5222 35.0602 16.3292 35.2243 16.0591C35.279 15.9433 35.3337 15.8275 35.3885 15.6731C35.4432 15.5574 35.4979 15.403 35.4979 15.2872C35.4979 15.21 35.5526 15.1328 35.5526 15.0942V14.9399V14.7855V14.7469V14.7083V14.6311C35.5526 14.4382 35.4979 14.2452 35.4432 14.0522C35.279 13.2804 35.0602 12.6243 34.8413 12.084C34.6224 11.5051 34.3488 11.0806 34.1847 10.7333C34.0205 10.4245 33.9111 10.2316 33.9111 10.2316C33.8017 10.0772 33.5828 10 33.364 10C33.0357 10.0386 32.8715 10.2316 32.8715 10.4245C32.8715 10.4245 32.9262 10.6175 32.9809 10.9262C33.0357 11.235 33.0904 11.7367 33.1998 12.277C33.3092 12.8173 33.364 13.4733 33.4187 14.1294C33.4187 14.2838 33.4187 14.4768 33.4187 14.6311C33.4187 14.6697 33.364 15.0171 33.364 15.0556C33.3092 15.1328 33.2545 15.2486 33.1998 15.3644C33.1451 15.4802 33.0357 15.5959 32.9262 15.7117C32.6526 15.9433 32.2696 16.252 31.8866 16.6379C31.5036 17.0625 31.2847 17.6028 31.2847 18.0659V18.2588C31.23 18.336 31.23 18.336 31.23 18.3746Z" fill="#0D1A1D"/>
<path id="Vector_4" d="M35.5526 18.3746V18.4518C35.5526 18.529 35.5526 18.6448 35.6073 18.722C35.662 18.9149 35.662 19.1079 35.7167 19.3008C35.8262 19.6482 35.9356 19.9569 36.045 20.2657C36.3186 20.8446 36.5922 21.3077 36.8111 21.6164C36.9205 21.7708 37.0299 21.8866 37.0847 21.9637C37.1394 22.0409 37.1941 22.0795 37.1941 22.0795C37.3035 22.1953 37.5224 22.3111 37.7412 22.2725C38.0148 22.2339 38.2337 22.0409 38.179 21.8094V21.7708C38.179 21.7708 38.1243 21.5778 38.0695 21.2691C38.0148 20.9603 37.9054 20.4972 37.796 19.9569C37.7412 19.6868 37.6865 19.4166 37.6865 19.1079C37.6865 18.9535 37.6865 18.7991 37.6865 18.6834C37.6865 18.6062 37.6865 18.529 37.6865 18.4132V18.336V18.2974V18.2202C37.7412 17.9887 37.8507 17.7957 38.0695 17.5642C38.2884 17.3326 38.6167 17.1011 38.9997 16.7151C39.1639 16.5222 39.3827 16.3292 39.5469 16.0591C39.6016 15.9433 39.6563 15.8275 39.711 15.6731C39.7657 15.5574 39.8205 15.403 39.8205 15.2872C39.8205 15.21 39.8752 15.1328 39.8752 15.0942V14.9399V14.7855V14.7469V14.7083V14.6311C39.8752 14.4382 39.8205 14.2452 39.7657 14.0522C39.6016 13.2804 39.3827 12.6243 39.1639 12.084C38.945 11.5051 38.6714 11.0806 38.5073 10.7333C38.3431 10.4245 38.2337 10.2316 38.2337 10.2316C38.1243 10.0772 37.9054 10 37.6865 10C37.3582 10.0386 37.1941 10.2316 37.1941 10.4245C37.1941 10.4245 37.2488 10.6175 37.3035 10.9262C37.3582 11.235 37.413 11.7367 37.5224 12.277C37.6318 12.8173 37.6865 13.4733 37.7412 14.1294C37.7412 14.2838 37.7412 14.4768 37.7412 14.6311C37.7412 14.6697 37.6865 15.0171 37.6865 15.0556C37.6318 15.1328 37.5771 15.2486 37.5224 15.3644C37.4677 15.4802 37.3582 15.5959 37.2488 15.7117C36.9752 15.9433 36.5922 16.252 36.2092 16.6379C35.8262 17.0625 35.6073 17.6028 35.6073 18.0659V18.2588C35.5526 18.336 35.5526 18.336 35.5526 18.3746Z" fill="#0D1A1D"/>
<path id="Vector_5" d="M46.2887 31.1939H19.8553C19.1111 31.1939 18.5455 31.8422 18.6944 32.5187C19.26 35.2812 20.0935 38.382 21.3139 41.3136C24.2013 48.1635 28.0413 51.4898 33.072 51.4898C38.1027 51.4898 41.9427 48.1635 44.8301 41.3136C46.0804 38.382 46.9139 35.2812 47.4497 32.5187C47.5985 31.8422 47.0329 31.1939 46.2887 31.1939Z" fill="#0D1A1D"/>
</g>
</g>
</svg>
