<svg width="47" height="39" viewBox="0 0 47 39" fill="none" xmlns="http://www.w3.org/2000/svg">
<path id="&#226;&#128;&#156;" d="M15.7217 37.6001C12.8417 38.2721 10.2017 38.6081 7.80168 38.6081C5.40168 38.6081 3.57768 37.1201 2.32968 34.1441C1.17768 31.1681 0.601676 27.2801 0.601676 22.4801C0.601676 17.5841 2.37768 13.0241 5.92968 8.8001C9.48168 4.57609 14.0897 1.88809 19.7537 0.736096L21.0497 4.91209C17.3057 6.0641 14.3777 7.9361 12.2657 10.5281C10.2497 13.0241 9.24168 15.8561 9.24168 19.0241V19.6001C9.81768 19.5041 10.5857 19.4561 11.5457 19.4561C15.0977 19.4561 16.8737 22.3841 16.8737 28.2401C16.8737 30.8321 16.4897 33.9521 15.7217 37.6001ZM41.0657 37.6001C38.1857 38.2721 35.5457 38.6081 33.1457 38.6081C30.7457 38.6081 28.9217 37.1201 27.6737 34.1441C26.5217 31.1681 25.9457 27.2801 25.9457 22.4801C25.9457 17.5841 27.7217 13.0241 31.2737 8.8001C34.8257 4.57609 39.4337 1.88809 45.0977 0.736096L46.3937 4.91209C42.6497 6.0641 39.7217 7.9361 37.6097 10.5281C35.5937 13.0241 34.5857 15.8561 34.5857 19.0241V19.6001C35.1617 19.5041 35.9297 19.4561 36.8897 19.4561C40.4417 19.4561 42.2177 22.3841 42.2177 28.2401C42.2177 30.8321 41.8337 33.9521 41.0657 37.6001Z" fill="#0F1C20" fill-opacity="0.12"/>
</svg>
