<svg width="20" height="20" viewBox="0 0 20 20" fill="none" xmlns="http://www.w3.org/2000/svg">
<g id="Layer 2">
<path id="Vector" d="M7.32438 15.3846C5.87575 15.3846 4.45966 14.9335 3.25517 14.0882C2.05069 13.243 1.1119 12.0416 0.557538 10.636C0.00317353 9.23045 -0.141873 7.68378 0.140739 6.19162C0.423352 4.69946 1.12093 3.32882 2.14526 2.25303C3.16959 1.17724 4.47467 0.444618 5.89546 0.147809C7.31625 -0.149 8.78894 0.00333295 10.1273 0.585546C11.4656 1.16776 12.6096 2.1537 13.4144 3.41869C14.2192 4.68369 14.6488 6.17092 14.6488 7.69231C14.6488 8.70248 14.4593 9.70276 14.0912 10.636C13.7231 11.5693 13.1836 12.4173 12.5035 13.1316C11.8234 13.8459 11.0159 14.4125 10.1273 14.7991C9.23866 15.1857 8.28623 15.3846 7.32438 15.3846V15.3846ZM7.32438 1.53847C6.16548 1.53847 5.0326 1.89938 4.06901 2.57558C3.10542 3.25177 2.3544 4.21287 1.91091 5.33734C1.46741 6.46181 1.35138 7.69914 1.57747 8.89287C1.80356 10.0866 2.36162 11.1831 3.18109 12.0437C4.00055 12.9044 5.04461 13.4905 6.18125 13.7279C7.31788 13.9654 8.49603 13.8435 9.56671 13.3777C10.6374 12.912 11.5525 12.1232 12.1964 11.1112C12.8402 10.0992 13.1839 8.90943 13.1839 7.69231C13.1839 6.06021 12.5665 4.49496 11.4677 3.34089C10.3688 2.18681 8.87841 1.53847 7.32438 1.53847V1.53847Z" fill="#0D1A1D"/>
<path id="Vector_2" d="M18.3109 20C18.2145 20.0006 18.119 19.9812 18.0298 19.9429C17.9405 19.9046 17.8593 19.8482 17.7909 19.7769L11.9314 13.6231C11.8631 13.5514 11.8089 13.4662 11.772 13.3725C11.735 13.2788 11.716 13.1784 11.716 13.0769C11.716 12.9755 11.735 12.8751 11.772 12.7814C11.8089 12.6877 11.8631 12.6025 11.9314 12.5308C11.9997 12.4591 12.0808 12.4022 12.17 12.3634C12.2592 12.3245 12.3549 12.3046 12.4514 12.3046C12.548 12.3046 12.6436 12.3245 12.7329 12.3634C12.8221 12.4022 12.9032 12.4591 12.9715 12.5308L18.831 18.6846C18.8996 18.7561 18.9541 18.8412 18.9913 18.935C19.0285 19.0287 19.0476 19.1292 19.0476 19.2308C19.0476 19.3323 19.0285 19.4329 18.9913 19.5266C18.9541 19.6204 18.8996 19.7054 18.831 19.7769C18.7625 19.8482 18.6814 19.9046 18.5921 19.9429C18.5029 19.9812 18.4073 20.0006 18.3109 20Z" fill="#0D1A1D"/>
</g>
</svg>
