<svg width="26" height="26" viewBox="0 0 26 26" fill="none" xmlns="http://www.w3.org/2000/svg">
<g id="Layer 2">
<path id="Vector" d="M9.99777 20C8.0204 20 6.08744 19.4135 4.44331 18.3147C2.79919 17.2159 1.51775 15.6541 0.761039 13.8268C0.00433187 11.9996 -0.193657 9.98891 0.192109 8.0491C0.577875 6.10929 1.53007 4.32746 2.92828 2.92894C4.3265 1.53041 6.10793 0.578004 8.04731 0.192152C9.98668 -0.193701 11.9969 0.00433284 13.8238 0.761209C15.6506 1.51809 17.212 2.79981 18.3106 4.4443C19.4092 6.08879 19.9955 8.02219 19.9955 10C19.9955 11.3132 19.7369 12.6136 19.2345 13.8268C18.7321 15.0401 17.9956 16.1425 17.0673 17.0711C16.1389 17.9997 15.0367 18.7363 13.8238 19.2388C12.6108 19.7413 11.3107 20 9.99777 20V20ZM9.99777 2C8.41588 2 6.8695 2.4692 5.5542 3.34825C4.2389 4.2273 3.21375 5.47673 2.60839 6.93854C2.00302 8.40035 1.84463 10.0089 2.15324 11.5607C2.46186 13.1126 3.22361 14.538 4.34218 15.6569C5.46075 16.7757 6.8859 17.5376 8.4374 17.8463C9.9889 18.155 11.5971 17.9965 13.0586 17.391C14.52 16.7855 15.7692 15.7602 16.648 14.4446C17.5269 13.129 17.996 11.5823 17.996 10C17.996 7.87827 17.1533 5.84344 15.6534 4.34315C14.1534 2.84286 12.119 2 9.99777 2V2Z" fill="white"/>
<path id="Vector_2" d="M24.9944 26C24.8628 26.0008 24.7324 25.9756 24.6106 25.9258C24.4888 25.876 24.378 25.8027 24.2846 25.71L16.2863 17.71C16.1931 17.6168 16.1192 17.5061 16.0687 17.3843C16.0183 17.2624 15.9923 17.1319 15.9923 17C15.9923 16.8682 16.0183 16.7376 16.0687 16.6158C16.1192 16.4939 16.1931 16.3833 16.2863 16.29C16.3796 16.1968 16.4902 16.1228 16.612 16.0724C16.7338 16.0219 16.8643 15.9959 16.9962 15.9959C17.128 15.9959 17.2585 16.0219 17.3803 16.0724C17.5021 16.1228 17.6128 16.1968 17.706 16.29L25.7042 24.29C25.7979 24.383 25.8723 24.4936 25.9231 24.6154C25.9738 24.7373 26 24.868 26 25C26 25.132 25.9738 25.2627 25.9231 25.3846C25.8723 25.5065 25.7979 25.6171 25.7042 25.71C25.6108 25.8027 25.5 25.876 25.3782 25.9258C25.2564 25.9756 25.126 26.0008 24.9944 26Z" fill="white"/>
</g>
</svg>
