<svg width="26" height="27" viewBox="0 0 26 27" fill="none" xmlns="http://www.w3.org/2000/svg">
<g id="Layer 2">
<path id="Vector" d="M21 27H5.00004C3.67396 27 2.40219 26.4732 1.4645 25.5355C0.526822 24.5979 3.80291e-05 23.3261 3.80291e-05 22C-0.00100251 21.8807 0.0193178 21.7622 0.060038 21.65C1.02103 19.115 2.72837 16.931 4.95656 15.3867C7.18475 13.8423 9.82898 13.0101 12.54 13H13.46C16.1711 13.0101 18.8153 13.8423 21.0435 15.3867C23.2717 16.931 24.979 19.115 25.94 21.65C25.9808 21.7622 26.0011 21.8807 26 22C26 23.3261 25.4733 24.5979 24.5356 25.5355C23.5979 26.4732 22.3261 27 21 27V27ZM2.00004 22.17C2.0435 22.9358 2.37866 23.6559 2.93663 24.1823C3.4946 24.7086 4.23299 25.0012 5.00004 25H21C21.7671 25.0012 22.5055 24.7086 23.0634 24.1823C23.6214 23.6559 23.9566 22.9358 24 22.17C23.1584 20.0601 21.7052 18.2501 19.827 16.9724C17.9489 15.6947 15.7316 15.0079 13.46 15H12.54C10.2685 15.0079 8.05121 15.6947 6.17304 16.9724C4.29488 18.2501 2.84163 20.0601 2.00004 22.17V22.17Z" fill="white"/>
<path id="Vector_2" d="M13 12C11.8133 12 10.6533 11.6481 9.66658 10.9888C8.67989 10.3295 7.91085 9.39246 7.45673 8.2961C7.0026 7.19975 6.88378 5.99335 7.11529 4.82946C7.3468 3.66558 7.91825 2.59648 8.75736 1.75736C9.59648 0.918247 10.6656 0.346802 11.8295 0.115291C12.9933 -0.11622 14.1997 0.00259972 15.2961 0.456726C16.3925 0.910851 17.3295 1.67989 17.9888 2.66658C18.6481 3.65328 19 4.81331 19 6C19 7.5913 18.3679 9.11743 17.2426 10.2426C16.1174 11.3679 14.5913 12 13 12ZM13 2C12.2089 2 11.4355 2.2346 10.7777 2.67412C10.1199 3.11365 9.60723 3.73836 9.30448 4.46927C9.00173 5.20017 8.92252 6.00444 9.07686 6.78036C9.2312 7.55629 9.61217 8.26902 10.1716 8.82843C10.731 9.38784 11.4437 9.7688 12.2196 9.92314C12.9956 10.0775 13.7998 9.99827 14.5307 9.69552C15.2616 9.39277 15.8864 8.88008 16.3259 8.22228C16.7654 7.56449 17 6.79113 17 6C17 4.93914 16.5786 3.92172 15.8284 3.17158C15.0783 2.42143 14.0609 2 13 2Z" fill="white"/>
<path id="Vector_3" d="M21 27H5.00004C3.67396 27 2.40219 26.4732 1.4645 25.5355C0.526822 24.5979 3.80291e-05 23.3261 3.80291e-05 22C-0.00100251 21.8807 0.0193178 21.7622 0.060038 21.65C1.02103 19.115 2.72837 16.931 4.95656 15.3867C7.18475 13.8423 9.82898 13.0101 12.54 13H13.46C16.1711 13.0101 18.8153 13.8423 21.0435 15.3867C23.2717 16.931 24.979 19.115 25.94 21.65C25.9808 21.7622 26.0011 21.8807 26 22C26 23.3261 25.4733 24.5979 24.5356 25.5355C23.5979 26.4732 22.3261 27 21 27V27ZM2.00004 22.17C2.0435 22.9358 2.37866 23.6559 2.93663 24.1823C3.4946 24.7086 4.23299 25.0012 5.00004 25H21C21.7671 25.0012 22.5055 24.7086 23.0634 24.1823C23.6214 23.6559 23.9566 22.9358 24 22.17C23.1584 20.0601 21.7052 18.2501 19.827 16.9724C17.9489 15.6947 15.7316 15.0079 13.46 15H12.54C10.2685 15.0079 8.05121 15.6947 6.17304 16.9724C4.29488 18.2501 2.84163 20.0601 2.00004 22.17V22.17Z" fill="white"/>
</g>
</svg>
